<mxfile host="app.diagrams.net" modified="2023-11-28T10:39:50.214Z" agent="Mozilla/5.0 (Windows NT 10.0; Win64; x64) AppleWebKit/537.36 (KHTML, like Gecko) Chrome/118.0.0.0 Safari/537.36" etag="4tLaHcfEvO2v7h0zmhss" version="22.1.4" type="device">
  <diagram name="Seite-1" id="rpfmd2Ks3ffDalcANGvh">
    <mxGraphModel dx="989" dy="508" grid="1" gridSize="10" guides="1" tooltips="1" connect="1" arrows="1" fold="1" page="1" pageScale="1" pageWidth="827" pageHeight="1169" math="0" shadow="0">
      <root>
        <mxCell id="0" />
        <mxCell id="1" parent="0" />
        <mxCell id="oKd342DAjf-iO3vQOo4u-2" value="&lt;b&gt;Web Browser&lt;br&gt;&lt;/b&gt;(Frontend UI)" style="rounded=0;whiteSpace=wrap;html=1;" parent="1" vertex="1">
          <mxGeometry x="153" y="110" width="120" height="60" as="geometry" />
        </mxCell>
        <mxCell id="oKd342DAjf-iO3vQOo4u-3" value="&lt;b&gt;Web API&lt;br&gt;&lt;/b&gt;(ASP.NET API)" style="rounded=0;whiteSpace=wrap;html=1;" parent="1" vertex="1">
          <mxGeometry x="353" y="110" width="120" height="60" as="geometry" />
        </mxCell>
        <mxCell id="oKd342DAjf-iO3vQOo4u-4" value="&lt;b&gt;Datenbank&lt;br&gt;&lt;/b&gt;(MSSQL)" style="rounded=0;whiteSpace=wrap;html=1;" parent="1" vertex="1">
          <mxGeometry x="553" y="110" width="120" height="60" as="geometry" />
        </mxCell>
        <mxCell id="oKd342DAjf-iO3vQOo4u-6" value="" style="endArrow=none;dashed=1;html=1;dashPattern=1 3;strokeWidth=2;rounded=0;edgeStyle=orthogonalEdgeStyle;exitX=0.5;exitY=0;exitDx=0;exitDy=0;" parent="1" edge="1" source="oKd342DAjf-iO3vQOo4u-3">
          <mxGeometry width="50" height="50" relative="1" as="geometry">
            <mxPoint x="413" y="270" as="sourcePoint" />
            <mxPoint x="213" y="110" as="targetPoint" />
            <Array as="points">
              <mxPoint x="413" y="60" />
              <mxPoint x="213" y="60" />
            </Array>
          </mxGeometry>
        </mxCell>
        <mxCell id="oKd342DAjf-iO3vQOo4u-7" value="" style="endArrow=none;dashed=1;html=1;dashPattern=1 3;strokeWidth=2;rounded=0;entryX=0.5;entryY=0;entryDx=0;entryDy=0;edgeStyle=orthogonalEdgeStyle;exitX=0.5;exitY=0;exitDx=0;exitDy=0;" parent="1" edge="1" target="oKd342DAjf-iO3vQOo4u-4">
          <mxGeometry width="50" height="50" relative="1" as="geometry">
            <mxPoint x="415" y="108" as="sourcePoint" />
            <mxPoint x="613" y="168" as="targetPoint" />
            <Array as="points">
              <mxPoint x="413" y="108" />
              <mxPoint x="413" y="58" />
              <mxPoint x="613" y="58" />
            </Array>
          </mxGeometry>
        </mxCell>
        <mxCell id="oKd342DAjf-iO3vQOo4u-9" value="Netzwerkverbindung" style="text;html=1;strokeColor=none;fillColor=none;align=center;verticalAlign=middle;whiteSpace=wrap;rounded=0;" parent="1" vertex="1">
          <mxGeometry x="384" y="30" width="60" height="30" as="geometry" />
        </mxCell>
        <mxCell id="oKd342DAjf-iO3vQOo4u-10" value="" style="endArrow=classic;startArrow=classic;html=1;rounded=0;dashed=1;" parent="1" edge="1">
          <mxGeometry width="50" height="50" relative="1" as="geometry">
            <mxPoint x="288" y="140" as="sourcePoint" />
            <mxPoint x="338" y="140" as="targetPoint" />
          </mxGeometry>
        </mxCell>
        <mxCell id="oKd342DAjf-iO3vQOo4u-11" value="" style="endArrow=classic;startArrow=classic;html=1;rounded=0;dashed=1;" parent="1" edge="1">
          <mxGeometry width="50" height="50" relative="1" as="geometry">
            <mxPoint x="487" y="139.66000000000003" as="sourcePoint" />
            <mxPoint x="537" y="139.66000000000003" as="targetPoint" />
          </mxGeometry>
        </mxCell>
        <mxCell id="Ndl8gUBl_Z0omBlPGFW8-1" value="&lt;b&gt;Mobil App&lt;/b&gt;&lt;br&gt;(.NET MAUI)" style="rounded=0;whiteSpace=wrap;html=1;" vertex="1" parent="1">
          <mxGeometry x="353" y="270" width="120" height="60" as="geometry" />
        </mxCell>
        <mxCell id="Ndl8gUBl_Z0omBlPGFW8-3" value="HTTPS" style="text;html=1;strokeColor=none;fillColor=none;align=center;verticalAlign=middle;whiteSpace=wrap;rounded=0;" vertex="1" parent="1">
          <mxGeometry x="420" y="200" width="60" height="30" as="geometry" />
        </mxCell>
        <mxCell id="Ndl8gUBl_Z0omBlPGFW8-4" value="" style="endArrow=classic;startArrow=classic;html=1;rounded=0;dashed=1;" edge="1" parent="1">
          <mxGeometry width="50" height="50" relative="1" as="geometry">
            <mxPoint x="412" y="183" as="sourcePoint" />
            <mxPoint x="412" y="253" as="targetPoint" />
          </mxGeometry>
        </mxCell>
      </root>
    </mxGraphModel>
  </diagram>
</mxfile>
